<svg width="34" height="34" viewBox="0 0 34 34" fill="none" xmlns="http://www.w3.org/2000/svg">
<g clip-path="url(#clip0)">
<path d="M17.1652 32.6083C17.1652 33.3403 16.5719 33.9338 15.8396 33.9338H8.68203C5.7586 33.9338 3.38017 31.5551 3.38017 28.6317V15.7953L2.3283 16.8451C2.06942 17.1034 1.73065 17.2324 1.39187 17.2324C1.05232 17.2324 0.712506 17.1027 0.453625 16.8433C-0.0633577 16.3252 -0.0625795 15.4858 0.455441 14.9688L14.3925 1.05933C14.4104 1.04169 14.4285 1.02431 14.4474 1.00745C15.961 -0.340129 18.2401 -0.3352 19.7483 1.01861C19.7672 1.03599 19.7859 1.05362 19.804 1.07204L29.7712 11.13C30.2864 11.6501 30.2825 12.4892 29.7626 13.0044C29.2425 13.5196 28.4034 13.516 27.888 12.9959L17.953 2.97007C17.458 2.54673 16.7302 2.54543 16.2339 2.96695L6.02916 13.1515C6.02942 13.1642 6.03097 13.1769 6.03097 13.1896V28.6317C6.03097 30.0934 7.22032 31.2827 8.68203 31.2827H15.8396C16.5719 31.2827 17.1652 31.8762 17.1652 32.6083ZM33.9989 19.6183V24.8281C33.9989 27.0701 33.1141 29.359 31.5712 31.1082C29.9261 32.973 27.7754 33.9999 25.5158 33.9999C23.2561 33.9999 21.1057 32.973 19.4606 31.1082C17.9177 29.359 17.0326 27.0701 17.0326 24.8281V19.6183C17.0326 19.1138 17.3193 18.6528 17.7719 18.4295L24.8945 14.917C25.0769 14.827 25.2774 14.7803 25.4807 14.7803H25.5508C25.7541 14.7803 25.9549 14.827 26.1373 14.917L33.2596 18.4295C33.7125 18.6528 33.9989 19.1138 33.9989 19.6183ZM31.3481 20.4427L25.5158 17.5665L19.6837 20.4427V24.8278C19.6837 28.2408 22.4634 31.3489 25.5158 31.3489C28.5681 31.3489 31.3481 28.2408 31.3481 24.8278V20.4427Z" fill="#06818E"/>
</g>
<defs>
<clipPath id="clip0">
<rect width="34" height="34" fill="white"/>
</clipPath>
</defs>
</svg>
