<svg width="116" height="25" viewBox="0 0 116 25" fill="none" xmlns="http://www.w3.org/2000/svg">
<path d="M19.3324 3.68567C18.3588 2.57302 17.1071 1.66898 15.5772 1.00835C14.0821 0.347705 12.274 0 10.2225 0H0C0.417246 1.66898 0.730181 6.11961 0.973574 9.6662V24.9652H10.2225C12.2044 24.9652 13.9777 24.6523 15.4729 23.9917C16.968 23.331 18.2197 22.427 19.2281 21.3143C20.2364 20.1669 21.0014 18.8456 21.4882 17.3157C21.975 15.7858 22.2531 14.1516 22.2531 12.4131C22.2531 10.7093 22.0097 9.14465 21.5229 7.61474C21.0362 6.15438 20.306 4.8331 19.3324 3.68567ZM17.8025 16.0292C17.4548 17.1071 16.9332 18.0111 16.2378 18.7761C15.5424 19.541 14.7079 20.0974 13.6648 20.5146C12.6565 20.9319 11.4395 21.1405 10.0487 21.1405H4.8331V3.85953H10.0834C12.6217 3.85953 14.6384 4.62448 16.0987 6.11961C17.5591 7.61474 18.3241 9.73574 18.3241 12.4478C18.3241 13.7691 18.1502 14.9513 17.8025 16.0292Z" fill="#CF0100"/>
<path d="M40.2642 18.1504L36.4047 4.24219H33.2753L29.381 18.1504L25.452 4.24219H21.9749L27.7816 24.9654H30.8762L34.8748 11.0572L38.7343 24.9654H41.7593L47.566 4.24219H44.1237L40.2642 18.1504Z" fill="#CF0100"/>
<path d="M51.9472 15.8208H60.6746V12.6219H51.9472V7.44107H61.5438V4.24219H48.7483V24.9654H61.6482V21.7665H51.9472V15.8208Z" fill="#CF0100"/>
<path d="M66.0292 4.24219H62.8303V24.9654H75.6606V21.7665H66.0292V4.24219Z" fill="#CF0100"/>
<path d="M80.0765 4.24219H76.8776V24.9654H89.7079V21.7665H80.0765V4.24219Z" fill="#CF0100"/>
<path d="M113.317 14.6386C112.691 14.1518 111.996 13.7346 111.266 13.4216C110.535 13.1087 109.91 12.8653 109.319 12.6567H109.353C108.832 12.4828 108.31 12.2742 107.789 12.0656C107.267 11.857 106.746 11.6136 106.293 11.3702C105.841 11.1268 105.459 10.8486 105.181 10.5357C104.903 10.2227 104.764 9.87504 104.764 9.49256C104.764 8.86669 105.077 8.31036 105.737 7.89312C106.363 7.4411 107.267 7.23248 108.414 7.23248C109.319 7.23248 110.083 7.37156 110.744 7.68449C111.405 7.99743 111.996 8.44944 112.552 9.14486L113.039 9.87504L115.786 7.68449C115.23 6.98908 114.638 6.43275 114.047 5.94597C113.456 5.49395 112.865 5.11147 112.239 4.83331C111.613 4.55515 110.987 4.34652 110.327 4.24221C109.666 4.1379 109.006 4.06836 108.275 4.06836C107.058 4.06836 106.015 4.24221 105.146 4.55515C104.277 4.86808 103.581 5.28533 103.025 5.80689C102.469 6.32844 102.051 6.95431 101.808 7.61495C101.565 8.31036 101.426 9.00577 101.426 9.73595C101.426 10.6748 101.599 11.4397 101.912 12.0656C102.225 12.6914 102.643 13.213 103.164 13.665C103.686 14.0823 104.242 14.43 104.903 14.7081C105.529 14.9863 106.189 15.2297 106.885 15.4731L107.58 15.7513C108.102 15.9251 108.658 16.1337 109.249 16.3424C109.805 16.551 110.327 16.7944 110.779 17.0725C111.231 17.3507 111.613 17.6984 111.892 18.0809C112.204 18.4634 112.344 18.8806 112.344 19.3674C112.344 19.7151 112.239 20.0628 112.031 20.341C111.822 20.6539 111.544 20.8973 111.161 21.1059C110.779 21.3145 110.362 21.4884 109.875 21.5927C109.388 21.697 108.797 21.7666 108.206 21.7666C107.128 21.7666 106.154 21.5232 105.25 21.0711C104.346 20.6191 103.547 19.8889 102.851 18.9154L100.243 21.0364C101.495 22.4272 102.747 23.4355 104.033 24.0614C105.32 24.6873 106.711 25.0002 108.171 25.0002C109.214 25.0002 110.188 24.8611 111.092 24.6177C111.996 24.3396 112.761 23.9571 113.456 23.4355C114.117 22.914 114.638 22.2881 115.021 21.5232C115.403 20.7582 115.577 19.8889 115.577 18.9154C115.577 17.9766 115.369 17.1421 114.917 16.4467C114.499 15.7165 113.943 15.1254 113.317 14.6386Z" fill="#CF0100"/>
<path d="M98.6439 4.24219L93.3588 11.7178L90.9249 8.27557L89.3602 6.05025C89.4993 5.45916 89.6383 4.86806 89.8122 4.31173H88.1084H84.2837L88.6648 10.779C88.6648 10.8138 88.6648 10.8834 88.6648 10.9181H88.7691L91.7246 15.2644V24.9654H94.9235L94.9582 15.2644L102.434 4.24219H98.6439Z" fill="#CF0100"/>
</svg>
