<svg width="31" height="31" viewBox="0 0 31 31" fill="none" xmlns="http://www.w3.org/2000/svg">
<circle cx="15.5" cy="15.5" r="15.5" fill="#111747"/>
<mask id="mask0" mask-type="alpha" maskUnits="userSpaceOnUse" x="0" y="0" width="31" height="31">
<circle cx="15.5" cy="15.5" r="15.5" fill="#111747"/>
</mask>
<g mask="url(#mask0)">
<g opacity="0.4">
<path fill-rule="evenodd" clip-rule="evenodd" d="M8.36669 7.72795C4.539 7.72795 1.43604 10.8275 1.43604 14.6511C1.43604 18.4746 4.539 21.5742 8.36669 21.5742V7.72795Z" fill="#16A3B2"/>
<path fill-rule="evenodd" clip-rule="evenodd" d="M8.36658 7.72795V21.5742C12.1943 21.5742 15.2972 18.4746 15.2972 14.6511C15.2972 10.8275 12.1943 7.72795 8.36658 7.72795Z" fill="#16A3B2"/>
<path fill-rule="evenodd" clip-rule="evenodd" d="M-5.49438 21.5742C-1.66669 21.5742 1.43628 18.4746 1.43628 14.6511C-2.39142 14.6511 -5.49438 17.7507 -5.49438 21.5742Z" fill="#FE5E33"/>
<path fill-rule="evenodd" clip-rule="evenodd" d="M22.2281 21.5742C22.2281 17.7507 19.1252 14.6511 15.2975 14.6511C15.2975 18.4746 18.4004 21.5742 22.2281 21.5742Z" fill="#CF0100"/>
<rect width="13.8613" height="13.8463" rx="6.92313" transform="matrix(1 0 0 -1 22.228 21.5742)" fill="#111747"/>
<rect width="6.93066" height="6.92314" rx="3.46157" transform="matrix(1 0 0 -1 25.6934 18.1133)" fill="#FFC641"/>
</g>
</g>
<g clip-path="url(#clip0)">
<path d="M22.8645 15.9516C22.7579 16.057 22.6189 16.1096 22.48 16.1096C22.339 16.1096 22.1981 16.0554 22.0911 15.9472L21.6596 15.5109V18.051C21.6596 18.353 21.4148 18.5979 21.1128 18.5979C20.8108 18.5979 20.566 18.353 20.566 18.051V14.4417C20.566 14.4299 20.567 14.4182 20.5677 14.4066L16.4064 10.1979C16.2024 10.0234 15.9022 10.0228 15.6974 10.1967L11.4873 14.3986C11.4874 14.4038 11.4881 14.409 11.4881 14.4144V18.1057C11.4881 18.4076 11.2433 18.6525 10.9412 18.6525C10.6392 18.6525 10.3944 18.4076 10.3944 18.1057V15.4893L9.96034 15.9225C9.74672 16.1358 9.40044 16.1354 9.18703 15.9217C8.97362 15.708 8.97404 15.3617 9.18777 15.1483L14.9377 9.40973C14.945 9.40236 14.9526 9.39531 14.9604 9.38837C15.5849 8.83231 16.5252 8.83434 17.1473 9.39296C17.1554 9.40023 17.1632 9.4077 17.1708 9.41539L22.8688 15.1782C23.0812 15.393 23.0792 15.7393 22.8645 15.9516ZM21.1128 20.2384C20.8108 20.2384 20.566 20.4832 20.566 20.7853C20.566 21.3883 20.0753 21.8789 19.4723 21.8789H12.5818C12.2798 21.8789 12.0349 22.1237 12.0349 22.4258C12.0349 22.7278 12.2798 22.9727 12.5818 22.9727H19.4723C20.6784 22.9727 21.6596 21.9914 21.6596 20.7853C21.6596 20.4832 21.4148 20.2384 21.1128 20.2384ZM13.0859 19.746H13.0877C13.1794 19.746 13.2657 19.7817 13.3307 19.8466L13.9722 20.4885C14.2439 20.7603 14.6045 20.9096 14.9885 20.9096H14.9958C15.3824 20.9077 15.7445 20.7546 16.0136 20.4801L18.4332 18.0333V19.1173C18.4332 19.4194 18.6781 19.6642 18.9801 19.6642C19.2821 19.6642 19.5269 19.4194 19.5269 19.1173V17.5041C19.5269 16.7502 18.9136 16.1369 18.1599 16.1369H16.5192C16.2172 16.1369 15.9724 16.3817 15.9724 16.6838C15.9724 16.9858 16.2172 17.2307 16.5192 17.2307H17.6888L15.2342 19.7128C15.1694 19.7788 15.0829 19.8154 14.9903 19.8158C14.9898 19.8158 14.9891 19.8158 14.9886 19.8158C14.8969 19.8158 14.8106 19.7802 14.7457 19.7152L14.1041 19.0733C13.8324 18.8016 13.4718 18.6522 13.0879 18.6522C13.0852 18.6522 13.0827 18.6522 13.0801 18.6522C12.6933 18.6543 12.3312 18.8075 12.0592 19.0854L9.18201 22.0446C8.97148 22.2612 8.97639 22.6074 9.19279 22.8179C9.29918 22.9212 9.43664 22.9727 9.574 22.9727C9.7166 22.9727 9.85898 22.9173 9.96611 22.807L12.842 19.8492C12.9067 19.7832 12.9934 19.7464 13.0859 19.746Z" fill="white"/>
</g>
<defs>
<clipPath id="clip0">
<rect width="14" height="14" fill="white" transform="translate(9 9)"/>
</clipPath>
</defs>
</svg>
