<svg width="31" height="31" viewBox="0 0 31 31" fill="none" xmlns="http://www.w3.org/2000/svg">
<circle cx="15.5" cy="15.5" r="15.5" fill="#111747"/>
<mask id="mask0" mask-type="alpha" maskUnits="userSpaceOnUse" x="0" y="0" width="31" height="31">
<circle cx="15.5" cy="15.5" r="15.5" fill="#111747"/>
</mask>
<g mask="url(#mask0)">
<g opacity="0.4">
<path fill-rule="evenodd" clip-rule="evenodd" d="M8.36669 7.72795C4.539 7.72795 1.43604 10.8275 1.43604 14.6511C1.43604 18.4746 4.539 21.5742 8.36669 21.5742V7.72795Z" fill="#16A3B2"/>
<path fill-rule="evenodd" clip-rule="evenodd" d="M8.36658 7.72795V21.5742C12.1943 21.5742 15.2972 18.4746 15.2972 14.6511C15.2972 10.8275 12.1943 7.72795 8.36658 7.72795Z" fill="#16A3B2"/>
<path fill-rule="evenodd" clip-rule="evenodd" d="M-5.49438 21.5742C-1.66669 21.5742 1.43628 18.4746 1.43628 14.6511C-2.39142 14.6511 -5.49438 17.7507 -5.49438 21.5742Z" fill="#FE5E33"/>
<path fill-rule="evenodd" clip-rule="evenodd" d="M22.2281 21.5742C22.2281 17.7507 19.1252 14.6511 15.2975 14.6511C15.2975 18.4746 18.4004 21.5742 22.2281 21.5742Z" fill="#CF0100"/>
<rect width="13.8613" height="13.8463" rx="6.92313" transform="matrix(1 0 0 -1 22.228 21.5742)" fill="#111747"/>
<rect width="6.93066" height="6.92314" rx="3.46157" transform="matrix(1 0 0 -1 25.6934 18.1133)" fill="#FFC641"/>
</g>
</g>
<g clip-path="url(#clip0)">
<path d="M12.4764 21.8716C12.4764 22.1711 12.2337 22.4138 11.9342 22.4138C10.7384 22.4138 9.76547 21.4409 9.76547 20.2451V14.9402L9.28087 15.4237C9.17508 15.5294 9.03646 15.5822 8.89794 15.5822C8.759 15.5822 8.62005 15.5291 8.51415 15.423C8.30256 15.2111 8.30299 14.8678 8.51489 14.6562L14.2157 8.96655C14.223 8.95924 14.2306 8.95226 14.2383 8.94537C14.8575 8.39405 15.7897 8.39607 16.4065 8.94993C16.4143 8.95691 16.422 8.96422 16.4294 8.97164L20.6013 13.1808C20.8121 13.3935 20.8106 13.7367 20.5979 13.9476C20.3852 14.1584 20.0419 14.1568 19.8311 13.9442L15.6722 9.7482C15.4698 9.57495 15.172 9.57442 14.969 9.74683L10.8417 13.8659C10.8467 13.8952 10.8498 13.925 10.8498 13.9556V20.2451C10.8498 20.843 11.3363 21.3295 11.9342 21.3295C12.2337 21.3294 12.4764 21.5722 12.4764 21.8716ZM22.2359 16.5852V20.7872C22.2359 21.7145 21.1287 22.4138 19.6605 22.4138C18.8158 22.4138 18.0908 22.1824 17.6272 21.8093C17.1636 22.1824 16.4386 22.4138 15.594 22.4138C14.1258 22.4138 13.0186 21.7145 13.0186 20.7872V18.6727C13.0186 18.6702 13.019 18.6678 13.019 18.6653C13.0188 18.6587 13.0186 18.6522 13.0186 18.6455C13.0186 17.7183 14.1258 17.019 15.594 17.019C16.1339 17.019 16.654 17.1232 17.085 17.3146V16.6666C17.085 16.6554 17.0854 16.6443 17.0861 16.6333C17.0854 16.6173 17.085 16.6013 17.085 16.5852C17.085 15.6579 18.1922 14.9586 19.6605 14.9586C21.1287 14.9586 22.2359 15.6579 22.2359 16.5852ZM17.085 20.7872V18.6727C17.085 18.5263 16.5723 18.1033 15.594 18.1033C14.6156 18.1033 14.103 18.5062 14.103 18.6455C14.103 18.7849 14.6156 19.1878 15.594 19.1878C15.8935 19.1878 16.1362 19.4305 16.1362 19.73C16.1362 20.0293 15.8935 20.2722 15.594 20.2722C15.0295 20.2722 14.5184 20.1686 14.103 19.9887V20.7872C14.103 20.9265 14.6156 21.3294 15.594 21.3294C16.5723 21.3294 17.085 20.9266 17.085 20.7872ZM21.1515 16.5852C21.1515 16.4459 20.6388 16.043 19.6605 16.043C18.6821 16.043 18.1694 16.4459 18.1694 16.5852C18.1694 16.7245 18.6821 17.1275 19.6605 17.1275C19.9599 17.1275 20.2026 17.3702 20.2026 17.6696C20.2026 17.9691 19.9599 18.2118 19.6605 18.2118C19.0959 18.2118 18.5848 18.1084 18.1694 17.9285V18.6455C18.1694 18.7849 18.6821 19.1878 19.6605 19.1878C19.9599 19.1878 20.2026 19.4305 20.2026 19.73C20.2026 20.0293 19.9599 20.2722 19.6605 20.2722C19.0958 20.2722 18.5848 20.1686 18.1694 19.9887V20.7872C18.1694 20.9265 18.6821 21.3294 19.6605 21.3294C20.6388 21.3294 21.1515 20.9265 21.1515 20.7872V16.5852Z" fill="white"/>
</g>
<defs>
<clipPath id="clip0">
<rect width="13.8806" height="13.8806" fill="white" transform="translate(8.32849 8.56055)"/>
</clipPath>
</defs>
</svg>
