<svg width="50" height="50" viewBox="0 0 50 50" fill="none" xmlns="http://www.w3.org/2000/svg">
<circle cx="25" cy="25" r="25" fill="#111747"/>
<mask id="mask0" mask-type="alpha" maskUnits="userSpaceOnUse" x="0" y="0" width="50" height="50">
<circle cx="25" cy="25" r="25" fill="#111747"/>
</mask>
<g mask="url(#mask0)">
<g opacity="0.4">
<path fill-rule="evenodd" clip-rule="evenodd" d="M13.4949 12.4655C7.32118 12.4655 2.31641 17.4648 2.31641 23.6318C2.31641 29.7988 7.32118 34.7982 13.4949 34.7982V12.4655Z" fill="#16A3B2"/>
<path fill-rule="evenodd" clip-rule="evenodd" d="M13.4951 12.4655V34.7982C19.6688 34.7982 24.6736 29.7988 24.6736 23.6318C24.6736 17.4648 19.6688 12.4655 13.4951 12.4655Z" fill="#16A3B2"/>
<path fill-rule="evenodd" clip-rule="evenodd" d="M-8.8623 34.7981C-2.6886 34.7981 2.31618 29.7988 2.31618 23.6318C-3.85753 23.6318 -8.8623 28.6311 -8.8623 34.7981Z" fill="#FE5E33"/>
<path fill-rule="evenodd" clip-rule="evenodd" d="M35.8523 34.7982C35.8523 28.6312 30.8475 23.6318 24.6738 23.6318C24.6738 29.7988 29.6786 34.7982 35.8523 34.7982Z" fill="#CF0100"/>
<rect width="22.357" height="22.3327" rx="11.1663" transform="matrix(1 0 0 -1 35.8516 34.7982)" fill="#111747"/>
<rect width="11.1785" height="11.1664" rx="5.58318" transform="matrix(1 0 0 -1 41.4414 29.215)" fill="#FFC641"/>
</g>
</g>
<path d="M25.5532 35.0401C25.5532 35.5121 25.1707 35.8946 24.6987 35.8946H19.6576C17.7728 35.8946 16.2396 34.3613 16.2396 32.4768V24.202L15.5615 24.8788C15.2276 25.2121 14.6867 25.2116 14.3532 24.8776C14.0198 24.5435 14.0204 24.0026 14.3544 23.6692L23.3386 14.7027C23.3501 14.6911 23.3619 14.6801 23.3739 14.6693C24.3499 13.8004 25.8189 13.8036 26.7911 14.6765C26.8031 14.6873 26.8149 14.6985 26.8263 14.71L35.7294 23.6717C36.062 24.0064 36.0602 24.5475 35.7254 24.8801C35.5588 25.0457 35.341 25.1285 35.1232 25.1285C34.9036 25.1285 34.684 25.0444 34.5171 24.8761L25.6342 15.9347C25.3152 15.6615 24.8458 15.6605 24.5257 15.9323L17.9474 22.4977C17.9476 22.5059 17.9486 22.5139 17.9486 22.5223V32.4768C17.9486 33.419 18.7153 34.1858 19.6576 34.1858H24.6987C25.1707 34.1856 25.5532 34.5683 25.5532 35.0401ZM26.7922 29.9133C25.6143 29.9133 24.656 28.955 24.656 27.7772C24.656 26.5993 25.6143 25.641 26.7922 25.641C27.9702 25.641 28.9283 26.5993 28.9283 27.7772C28.9283 28.955 27.9702 29.9133 26.7922 29.9133ZM27.2195 27.7772C27.2195 27.5416 27.0279 27.35 26.7922 27.35C26.5566 27.35 26.365 27.5416 26.365 27.7772C26.365 28.0127 26.5566 28.2045 26.7922 28.2045C27.0279 28.2045 27.2195 28.0129 27.2195 27.7772ZM35.9777 33.7583C35.9777 34.9363 35.0194 35.8946 33.8415 35.8946C32.6637 35.8946 31.7054 34.9363 31.7054 33.7583C31.7054 32.5806 32.6637 31.6223 33.8415 31.6223C35.0194 31.6223 35.9777 32.5806 35.9777 33.7583ZM34.2687 33.7583C34.2687 33.5229 34.0771 33.3313 33.8415 33.3313C33.606 33.3313 33.4142 33.5229 33.4142 33.7583C33.4142 33.994 33.606 34.1856 33.8415 34.1856C34.0771 34.1856 34.2687 33.994 34.2687 33.7583ZM33.136 25.7451C32.7216 25.5195 32.2026 25.6724 31.9769 26.0869L27.3235 34.6315C27.0978 35.0459 27.2509 35.5648 27.6653 35.7906C27.7951 35.8612 27.9351 35.8947 28.0732 35.8947C28.3761 35.8947 28.6693 35.7334 28.8243 35.4488L33.4777 26.9042C33.7033 26.4898 33.5504 25.9708 33.136 25.7451Z" fill="white"/>
</svg>
