<svg width="50" height="50" viewBox="0 0 50 50" fill="none" xmlns="http://www.w3.org/2000/svg">
<circle cx="25" cy="25" r="25" fill="#111747"/>
<mask id="mask0" mask-type="alpha" maskUnits="userSpaceOnUse" x="0" y="0" width="50" height="50">
<circle cx="25" cy="25" r="25" fill="#111747"/>
</mask>
<g mask="url(#mask0)">
<g opacity="0.3">
<path d="M59.0957 17.3703C59.0957 10.9358 53.8795 5.71964 47.445 5.71964H35.7691V29.0209H47.4451C53.8795 29.0209 59.0957 23.8048 59.0957 17.3703Z" fill="#CF0100"/>
<rect width="11.6633" height="11.6507" rx="5.82533" transform="matrix(-1 0 0 1 53.2637 11.5449)" fill="white"/>
<rect width="11.6633" height="11.6507" rx="5.82533" transform="matrix(-1 0 0 1 12.2891 11.5449)" fill="#FFC641"/>
<path fill-rule="evenodd" clip-rule="evenodd" d="M-10.9614 40.6716H12.3652C12.3652 34.2371 7.14339 29.021 0.701917 29.021C-5.73956 29.021 -10.9614 34.2371 -10.9614 40.6716Z" fill="#FF87A2"/>
<path fill-rule="evenodd" clip-rule="evenodd" d="M-10.9612 17.3703C-10.9612 23.8048 -5.73932 29.021 0.702148 29.021C0.702148 22.5865 -4.5197 17.3703 -10.9612 17.3703Z" fill="#06818E"/>
<path fill-rule="evenodd" clip-rule="evenodd" d="M12.3652 40.6716C12.3652 34.2371 7.14339 29.021 0.701917 29.021C0.701917 35.4554 5.92376 40.6716 12.3652 40.6716Z" fill="#111747"/>
<rect width="23.3266" height="23.3013" rx="11.6507" transform="matrix(-1 0 0 1 35.6914 17.3703)" fill="#06818E"/>
<path fill-rule="evenodd" clip-rule="evenodd" d="M12.3662 5.71957C12.3662 12.1541 17.5881 17.3702 24.0295 17.3702C24.0295 10.9358 18.8077 5.71957 12.3662 5.71957ZM35.6934 29.0209C35.6934 22.5864 30.4715 17.3702 24.03 17.3702C24.03 23.8047 29.2519 29.0209 35.6934 29.0209ZM24.03 17.3702C30.4715 17.3702 35.6934 12.1541 35.6934 5.71957C29.2519 5.71957 24.03 10.9358 24.03 17.3702ZM24.0295 17.3702C17.5881 17.3702 12.3662 22.5864 12.3662 29.0209C18.8077 29.0209 24.0295 23.8047 24.0295 17.3702Z" fill="#111747"/>
</g>
</g>
<g clip-path="url(#clip0)">
<path d="M25.4822 35.3193C25.4822 35.8024 25.0907 36.1939 24.6077 36.1939H19.4919C17.5631 36.1939 15.9939 34.6247 15.9939 32.6959V24.227L15.2999 24.9196C15.1291 25.0899 14.9055 25.1751 14.6821 25.1751C14.458 25.1751 14.2339 25.0895 14.0631 24.9184C13.722 24.5766 13.7225 24.0228 14.0643 23.6817L23.2592 14.5048C23.271 14.493 23.2831 14.4817 23.2954 14.4706C24.2943 13.5814 25.7977 13.5847 26.7927 14.478C26.8058 14.4898 26.8186 14.5021 26.8311 14.5147L34.1941 21.9814C34.5331 22.3252 34.5294 22.879 34.1854 23.218C33.8415 23.5572 33.2878 23.5533 32.9487 23.2095L25.6076 15.7648C25.2814 15.4861 24.8014 15.4854 24.4741 15.7633L17.7416 22.4827C17.7418 22.4912 17.7428 22.4994 17.7428 22.508V32.6959C17.7428 33.6603 18.5275 34.445 19.4919 34.445H24.6077C25.0907 34.4448 25.4822 34.8363 25.4822 35.3193ZM32.4344 24.8253C30.9735 24.8253 30.0822 25.4341 29.5486 26.0759C29.015 25.4341 28.1238 24.8253 26.6629 24.8253C24.4839 24.8253 22.9024 26.4861 22.9024 28.7742C22.9024 31.1785 24.943 32.6997 26.7435 34.042C27.5871 34.671 28.3839 35.265 28.8664 35.8666C29.0325 36.0735 29.2834 36.1939 29.5486 36.1939C29.8139 36.1939 30.065 36.0735 30.2308 35.8666C30.5586 35.4579 31.0084 35.0828 31.4454 34.7383C31.8248 34.4393 31.8899 33.8893 31.591 33.51C31.2921 33.1308 30.7422 33.0655 30.3629 33.3646C30.0918 33.5781 29.8149 33.8039 29.5498 34.0487C29.0296 33.5648 28.4211 33.1111 27.7888 32.6397C26.2464 31.4898 24.6514 30.3007 24.6514 28.7742C24.6514 27.4585 25.4599 26.5744 26.6629 26.5744C27.4417 26.5744 27.9899 26.8374 28.3386 27.3785C28.6147 27.8064 28.6721 28.2635 28.6772 28.3082C28.7071 28.7679 29.0876 29.1259 29.5486 29.1259C30.0098 29.1259 30.3904 28.7679 30.4203 28.3082C30.4254 28.2635 30.4828 27.8064 30.7586 27.3785C31.1074 26.8374 31.6557 26.5744 32.4346 26.5744C33.6376 26.5744 34.4458 27.4585 34.4458 28.7742C34.4458 29.5068 34.069 30.2238 33.2599 31.0307C32.918 31.3718 32.9173 31.9254 33.2582 32.2674C33.5993 32.6093 34.1531 32.6102 34.495 32.2691C35.2247 31.5413 36.1949 30.3873 36.1949 28.7742C36.1949 26.4861 34.6134 24.8253 32.4344 24.8253Z" fill="white"/>
</g>
<defs>
<clipPath id="clip0">
<rect width="22.3881" height="22.3881" fill="white" transform="translate(13.8066 13.806)"/>
</clipPath>
</defs>
</svg>
